<?xml version="1.0" encoding="UTF-8" standalone="no" ?>
<!DOCTYPE svg PUBLIC "-//W3C//DTD SVG 1.1//EN" "http://www.w3.org/Graphics/SVG/1.1/DTD/svg11.dtd">
<svg xmlns="http://www.w3.org/2000/svg" xmlns:xlink="http://www.w3.org/1999/xlink" version="1.1" width="117.50999999999996" height="128.44199999999998" xml:space="preserve">
<desc>Created with Fabric.js 1.6.0-rc.1</desc>
<defs></defs>
<g style="stroke: none; stroke-width: 1; stroke-dasharray: none; stroke-linecap: butt; stroke-linejoin: miter; stroke-miterlimit: 10; fill: none; fill-rule: nonzero; opacity: 1;" transform="translate(11.499999999999996 46.54000000000002) rotate(268.49) scale(0.11 0.11)" >
  <circle cx="240.94" cy="240.94" r="194.56" style="stroke: none; stroke-width: 1; stroke-dasharray: none; stroke-linecap: butt; stroke-linejoin: miter; stroke-miterlimit: 10; fill: #4458dc; fill-rule: nonzero; opacity: 1;" transform="  matrix(1 0 0 1 0 0) "/>
  <circle cx="240.93699999999998" cy="240.93699999999998" r="73.487" style="stroke: none; stroke-width: 1; stroke-dasharray: none; stroke-linecap: butt; stroke-linejoin: miter; stroke-miterlimit: 10; fill: #094066; fill-rule: nonzero; opacity: 1;" transform="  matrix(1 0 0 1 0 0) "/>
  <circle cx="289.12600000000003" cy="192.756" r="24.696" style="stroke: none; stroke-width: 1; stroke-dasharray: none; stroke-linecap: butt; stroke-linejoin: miter; stroke-miterlimit: 10; fill: #ffffff; fill-rule: nonzero; opacity: 1;" transform="  matrix(1 0 0 1 0 0) "/>
  <circle cx="167.459" cy="240.939" r="15.059" style="stroke: none; stroke-width: 1; stroke-dasharray: none; stroke-linecap: butt; stroke-linejoin: miter; stroke-miterlimit: 10; fill: #ffffff; fill-rule: nonzero; opacity: 1;" transform="  matrix(1 0 0 1 0 0) "/>
  <polygon points="388.52,26.5 455.38,26.5 455.38,93.36 481.88,93.36 481.88,0 388.52,0 " style="stroke: none; stroke-width: 1; stroke-dasharray: none; stroke-linecap: butt; stroke-linejoin: miter; stroke-miterlimit: 10; fill: #EBF0F3; fill-rule: nonzero; opacity: 0;" transform="  matrix(1 0 0 1 0 0) "/>
  <polygon points="26.5,93.36 26.5,26.5 93.36,26.5 93.36,0 0,0 0,93.36 " style="stroke: none; stroke-width: 1; stroke-dasharray: none; stroke-linecap: butt; stroke-linejoin: miter; stroke-miterlimit: 10; fill: #EBF0F3; fill-rule: nonzero; opacity: 0;" transform="  matrix(1 0 0 1 0 0) "/>
  <polygon points="93.36,455.38 26.5,455.38 26.5,388.52 0,388.52 0,481.88 93.36,481.88 " style="stroke: none; stroke-width: 1; stroke-dasharray: none; stroke-linecap: butt; stroke-linejoin: miter; stroke-miterlimit: 10; fill: #EBF0F3; fill-rule: nonzero; opacity: 0;" transform="  matrix(1 0 0 1 0 0) "/>
  <polygon points="455.38,388.52 455.38,455.38 388.52,455.38 388.52,481.88 481.88,481.88 481.88,388.52 " style="stroke: none; stroke-width: 1; stroke-dasharray: none; stroke-linecap: butt; stroke-linejoin: miter; stroke-miterlimit: 10; fill: #EBF0F3; fill-rule: nonzero; opacity: 0;" transform="  matrix(1 0 0 1 0 0) "/>
</g>
  <g transform="translate(51.43 22.02) scale(0.45 0.45)">
   <text font-family="Lovelo" font-size="40" font-weight="normal" style="stroke: none; stroke-width: 1; stroke-dasharray: none; stroke-linecap: butt; stroke-linejoin: miter; stroke-miterlimit: 10; fill: #fafafa; fill-rule: nonzero; opacity: 1;" ><tspan x="-36.5" y="8.98" style="stroke: none; stroke-width: 0; stroke-dasharray: none; stroke-linecap: butt; stroke-linejoin: miter; stroke-miterlimit: 4; fill: #fafafa; fill-rule: ; opacity: 1;">R</tspan><tspan x="-11.5" y="8.98" style="stroke: none; stroke-width: 0; stroke-dasharray: none; stroke-linecap: butt; stroke-linejoin: miter; stroke-miterlimit: 4; fill: #fafafa; fill-rule: ; opacity: 1;">d</tspan><tspan x="16.5" y="8.98" style="stroke: none; stroke-width: 0; stroke-dasharray: none; stroke-linecap: butt; stroke-linejoin: miter; stroke-miterlimit: 4; fill: #fafafa; fill-rule: ; opacity: 1;">e</tspan></text>
 </g>
  <g transform="translate(10.5 92.73)">
   <text font-family="ADAMCG PRO" font-size="40" font-weight="normal" style="stroke: none; stroke-width: 1; stroke-dasharray: none; stroke-linecap: butt; stroke-linejoin: miter; stroke-miterlimit: 10; fill: #000000; fill-rule: nonzero; opacity: 1;" ><tspan x="0" y="8.98" fill="#000000"></tspan></text>
 </g>
  <g transform="translate(83.43 22.16) scale(0.45 0.45)">
   <text font-family="Lovelo" font-size="40" font-weight="normal" style="stroke: none; stroke-width: 1; stroke-dasharray: none; stroke-linecap: butt; stroke-linejoin: miter; stroke-miterlimit: 10; fill: #4458dc; fill-rule: nonzero; opacity: 1;" ><tspan x="-54" y="8.98" style="stroke: none; stroke-width: 0; stroke-dasharray: none; stroke-linecap: butt; stroke-linejoin: miter; stroke-miterlimit: 4; fill: #4458dc; fill-rule: ; opacity: 1;">E</tspan><tspan x="-34" y="8.98" style="stroke: none; stroke-width: 0; stroke-dasharray: none; stroke-linecap: butt; stroke-linejoin: miter; stroke-miterlimit: 4; fill: #4458dc; fill-rule: ; opacity: 1;">s</tspan><tspan x="-13" y="8.98" style="stroke: none; stroke-width: 0; stroke-dasharray: none; stroke-linecap: butt; stroke-linejoin: miter; stroke-miterlimit: 4; fill: #4458dc; fill-rule: ; opacity: 1;">i</tspan><tspan x="-1" y="8.98" style="stroke: none; stroke-width: 0; stroke-dasharray: none; stroke-linecap: butt; stroke-linejoin: miter; stroke-miterlimit: 4; fill: #4458dc; fill-rule: ; opacity: 1;">g</tspan><tspan x="26" y="8.98" style="stroke: none; stroke-width: 0; stroke-dasharray: none; stroke-linecap: butt; stroke-linejoin: miter; stroke-miterlimit: 4; fill: #4458dc; fill-rule: ; opacity: 1;">n</tspan></text>
 </g>
</svg>